<svg width="595" height="595" xmlns="http://www.w3.org/2000/svg" xmlns:xlink="http://www.w3.org/1999/xlink" xml:space="preserve" overflow="hidden"><g transform="translate(-577 9)"><path d="M754.384 76.6552C753.901 78.6863 753.652 80.7657 753.641 82.8531 753.329 97.1579 764.674 109.006 778.978 109.318 778.982 109.318 778.986 109.318 778.99 109.318 784.74 109.301 790.305 107.285 794.733 103.616 800.256 110.718 808.73 114.898 817.727 114.958L831.115 114.958 831.115 145.948 899.292 145.948 899.292 102.562 865.203 102.562C858.829 96.7563 850.521 93.5303 841.899 93.5135 837.449 93.5135 833.842 89.9063 833.842 85.4562L833.842 85.4562 833.842 82.7292C833.876 67.9763 821.944 55.9883 807.191 55.9542 807.149 55.9542 807.108 55.9542 807.067 55.9542 802.617 55.9542 799.009 52.3468 799.009 47.8969 800.719 30.8674 788.299 15.6765 771.27 13.9672 754.241 12.2578 739.049 24.6772 737.34 41.7067 737.134 43.7649 737.134 45.8387 737.34 47.8969 737.231 59.9066 743.797 70.9847 754.384 76.6552Z"/><path d="M1130.66 314.593C1129.45 313.684 1127.78 313.684 1126.57 314.593 1095.42 329.729 1062.9 341.87 1029.45 350.851 952.284 372.482 866.133 383.452 793.927 388.906 706.474 395.476 639.475 393.865 633.587 393.865L633.587 393.865C630.233 394.223 627.782 397.198 628.071 400.558 625.778 438.18 639.909 488.507 647.098 506.977 647.796 509.216 649.781 510.809 652.119 511.005L1048.04 511.005C1049.28 511.011 1050.46 510.519 1051.33 509.642 1097.69 463.343 1125.7 367.895 1133.57 323.704 1134.29 320.365 1133.18 316.896 1130.66 314.593Z"/><path d="M1038.62 214.125 998.458 214.125 998.458 170.74 930.281 170.74 930.281 214.125 899.292 214.125 899.292 164.542 831.115 164.542 831.115 214.125 784.754 214.125C779.565 214.159 775.367 218.357 775.333 223.546L775.333 229.744C775.499 234.835 779.659 238.886 784.754 238.917L793.927 238.917 793.927 370.312C866.505 364.796 952.966 353.702 1029.45 331.576L1029.45 238.917 1038.62 238.917C1043.81 238.883 1048.01 234.685 1048.04 229.496L1048.04 223.608C1048.08 218.405 1043.89 214.16 1038.68 214.125 1038.66 214.125 1038.64 214.125 1038.62 214.125ZM843.51 288.5C833.241 288.5 824.917 280.176 824.917 269.906 824.917 259.637 833.241 251.312 843.51 251.312 853.78 251.312 862.104 259.637 862.104 269.906 862.104 280.176 853.78 288.5 843.51 288.5ZM911.688 288.5C901.418 288.5 893.094 280.176 893.094 269.906 893.094 259.637 901.418 251.312 911.688 251.312 921.957 251.312 930.281 259.637 930.281 269.906 930.281 280.176 921.957 288.5 911.688 288.5ZM979.865 288.5C969.595 288.5 961.271 280.176 961.271 269.906 961.271 259.637 969.595 251.312 979.865 251.312 990.134 251.312 998.458 259.637 998.458 269.906 998.458 280.176 990.134 288.5 979.865 288.5Z"/></g></svg>